<?xml version="1.0" encoding="UTF-8"?><svg id="Layer_2" xmlns="http://www.w3.org/2000/svg" xmlns:xlink="http://www.w3.org/1999/xlink" viewBox="0 0 604.37 92"><defs><style>.cls-1{fill:url(#linear-gradient-2);}.cls-2{fill:url(#linear-gradient-6);}.cls-3{fill:url(#linear-gradient-11);}.cls-4{fill:url(#linear-gradient-10);}.cls-5{fill:url(#linear-gradient-5);}.cls-6{fill:url(#linear-gradient-7);}.cls-7{fill:url(#linear-gradient-9);}.cls-8{fill:url(#linear-gradient-3);}.cls-9{fill:url(#linear-gradient);}.cls-10{fill:url(#linear-gradient-4);}.cls-11{fill:url(#linear-gradient-8);}.cls-12{fill:url(#linear-gradient-12);}.cls-13{fill:url(#linear-gradient-13);}</style><linearGradient id="linear-gradient" x1="3" y1="38.4" x2="60.92" y2="38.4" gradientTransform="matrix(1, 0, 0, 1, 0, 0)" gradientUnits="userSpaceOnUse"><stop offset="0" stop-color="#f28e25" stop-opacity="1"/><stop offset="1" stop-color="#ec6453"/></linearGradient><linearGradient id="linear-gradient-2" x1="62.12" y1="36.92" x2="82.12" y2="36.92" xlink:href="#linear-gradient"/><linearGradient id="linear-gradient-3" x1="81.32" y1="39.56" x2="148.44" y2="39.56" xlink:href="#linear-gradient"/><linearGradient id="linear-gradient-4" x1="151.64" y1="36.92" x2="171.64" y2="36.92" xlink:href="#linear-gradient"/><linearGradient id="linear-gradient-5" x1="172.84" y1="46.72" x2="220.92" y2="46.72" xlink:href="#linear-gradient"/><linearGradient id="linear-gradient-6" x1="220.92" y1="55.76" x2="268.52" y2="55.76" xlink:href="#linear-gradient"/><linearGradient id="linear-gradient-7" x1="289.56" y1="38.44" x2="338.2" y2="38.44" xlink:href="#linear-gradient"/><linearGradient id="linear-gradient-8" x1="334.6" y1="39.56" x2="374.12" y2="39.56" xlink:href="#linear-gradient"/><linearGradient id="linear-gradient-9" x1="372.12" y1="46.68" x2="420.6" y2="46.68" xlink:href="#linear-gradient"/><linearGradient id="linear-gradient-10" x1="421.8" y1="46.56" x2="459.96" y2="46.56" xlink:href="#linear-gradient"/><linearGradient id="linear-gradient-11" x1="464.17" y1="39.56" x2="503.69" y2="39.56" xlink:href="#linear-gradient"/><linearGradient id="linear-gradient-12" x1="506.09" y1="46.84" x2="553.93" y2="46.84" xlink:href="#linear-gradient"/><linearGradient id="linear-gradient-13" x1="553.13" y1="36.88" x2="601.37" y2="36.88" xlink:href="#linear-gradient"/></defs><g id="Layer_1-2"><g><g><path class="cls-9" d="M35.52,71.64c-5.71,0-11.13-1.53-16.12-4.55-4.95-3-8.96-7.13-11.92-12.27-2.97-5.16-4.48-10.93-4.48-17.14s1.55-11.61,4.61-16.57c3.03-4.92,7.12-8.86,12.17-11.68,5.04-2.83,10.53-4.26,16.31-4.26,2.88,0,5.87,.44,8.88,1.32,3.02,.88,5.83,2.16,8.36,3.81,1.76,1.15,3.03,2.14,3.88,3.03,1.23,1.28,1.88,2.92,1.88,4.76s-.79,3.9-2.4,6.15c-2.15,2.92-4.25,4.65-6.39,5.25h1.55c2.6,.07,4.49,.55,5.86,1.46,1.92,1.28,2.62,2.89,2.87,4.01,.24,1.08,.35,2.47,.35,4.24v17.6c0,2.5-1.04,4.85-3.08,6.96-1.7,1.77-3.63,3.22-5.71,4.33-4.73,2.37-10.29,3.55-16.6,3.55Zm.16-46.32c-2.09,0-4.07,.5-6.05,1.54-1.94,1.01-3.47,2.44-4.69,4.38-1.2,1.9-1.78,4.06-1.78,6.6s.6,4.76,1.82,6.84c1.25,2.12,2.83,3.74,4.85,4.96,1.97,1.19,3.93,1.77,6.01,1.77,1.47,0,2.71-.09,3.7-.27,.39-.07,.8-.17,1.22-.29v-3.6h-3.32c-1.65,0-2.86-.12-3.81-.39-1.05-.29-2.52-1.09-3.5-3.17-.6-1.29-.88-2.99-.88-5.35s.34-4.1,1.03-5.41c1.07-2.02,2.58-2.77,3.65-3.05,.98-.25,2.24-.38,3.84-.38h9.02c-.44-.12-.87-.27-1.31-.47-.79-.36-1.71-.89-2.81-1.63-2.15-1.37-4.45-2.06-6.98-2.06Z"/><path d="M36.08,8.16c2.61,0,5.29,.4,8.04,1.2,2.75,.8,5.27,1.95,7.56,3.44,1.55,1.01,2.67,1.88,3.36,2.6,.69,.72,1.04,1.61,1.04,2.68,0,1.23-.61,2.69-1.84,4.4-2.08,2.83-3.97,4.24-5.68,4.24-.59,0-1.2-.15-1.84-.44-.64-.29-1.44-.76-2.4-1.4-2.67-1.71-5.55-2.56-8.64-2.56-2.56,0-5.04,.63-7.44,1.88-2.4,1.25-4.35,3.07-5.84,5.44-1.49,2.37-2.24,5.11-2.24,8.2s.75,5.83,2.24,8.36c1.49,2.53,3.45,4.53,5.88,6,2.43,1.47,4.95,2.2,7.56,2.2,1.65,0,3.07-.11,4.24-.32,1.17-.21,2.4-.59,3.68-1.12v-8.72h-6.32c-1.33,0-2.33-.09-3-.28-.67-.19-1.2-.71-1.6-1.56-.4-.85-.6-2.21-.6-4.08s.23-3.15,.68-4c.45-.85,1.04-1.37,1.76-1.56,.72-.19,1.75-.28,3.08-.28h14.08c1.92,.05,3.32,.37,4.2,.96,.88,.59,1.41,1.31,1.6,2.16,.19,.85,.28,2.05,.28,3.6v17.6c0,1.71-.75,3.33-2.24,4.88-1.49,1.55-3.15,2.8-4.96,3.76-4.27,2.13-9.33,3.2-15.2,3.2-5.17,0-10.03-1.37-14.56-4.12-4.53-2.75-8.16-6.48-10.88-11.2s-4.08-9.93-4.08-15.64,1.39-10.49,4.16-15c2.77-4.51,6.47-8.05,11.08-10.64,4.61-2.59,9.56-3.88,14.84-3.88m0-6c-6.3,0-12.28,1.56-17.77,4.65-5.49,3.08-9.95,7.36-13.26,12.73C1.7,24.98,0,31.09,0,37.68s1.64,13.01,4.88,18.64c3.22,5.59,7.58,10.07,12.97,13.34,5.46,3.31,11.4,4.99,17.67,4.99,6.78,0,12.8-1.29,17.88-3.83l.06-.03,.06-.03c2.37-1.25,4.55-2.9,6.47-4.9,3.24-3.36,3.92-6.77,3.92-9.05v-17.6c0-1.99-.14-3.59-.42-4.88-.37-1.67-1.38-4.03-4.13-5.87-.47-.32-.98-.59-1.53-.83,.54-.64,.95-1.2,1.23-1.58l.02-.03,.02-.03c2-2.78,2.97-5.36,2.97-7.9s-.94-4.99-2.72-6.84c-1.03-1.07-2.43-2.17-4.4-3.46-2.79-1.82-5.87-3.22-9.17-4.18-3.28-.96-6.55-1.44-9.72-1.44h0Zm-9.82,37.2c-.07-.49-.1-1-.1-1.52,0-.89,.09-1.71,.27-2.48-.13,.9-.19,1.88-.19,2.96,0,.36,0,.71,.02,1.04h0Z"/></g><g><path class="cls-1" d="M72.08,70.84c-2.76,0-4.82-.43-6.29-1.3-2.1-1.25-2.91-2.92-3.21-4.11-.31-1.19-.45-2.7-.45-4.63v-28.08c0-1.93,.15-3.44,.46-4.6,.31-1.17,1.13-2.83,3.28-4.07,1.03-.6,2.33-.98,3.94-1.16-1.67-.19-3.01-.6-4.06-1.25-2.06-1.28-2.85-2.91-3.16-4.06-.31-1.17-.46-2.68-.46-4.61s.15-3.43,.46-4.6c.31-1.17,1.13-2.83,3.28-4.07,1.49-.86,3.55-1.28,6.3-1.28s4.86,.45,6.34,1.37c2.06,1.28,2.85,2.92,3.16,4.06,.31,1.17,.46,2.68,.46,4.61s-.15,3.44-.46,4.61c-.31,1.17-1.13,2.83-3.28,4.07-1.03,.6-2.33,.98-3.94,1.16,1.67,.19,3.01,.6,4.06,1.25,2.07,1.29,2.86,2.95,3.16,4.12,.31,1.19,.46,2.7,.46,4.63v28c0,1.93-.15,3.44-.46,4.61-.31,1.17-1.13,2.82-3.28,4.07-1.49,.86-3.55,1.28-6.3,1.28Z"/><path d="M72.16,6c2.19,0,3.77,.31,4.76,.92,.99,.61,1.6,1.37,1.84,2.28,.24,.91,.36,2.19,.36,3.84s-.12,2.93-.36,3.84c-.24,.91-.87,1.65-1.88,2.24-1.01,.59-2.61,.88-4.8,.88s-3.77-.31-4.76-.92c-.99-.61-1.6-1.37-1.84-2.28-.24-.91-.36-2.19-.36-3.84s.12-2.93,.36-3.84c.24-.91,.87-1.65,1.88-2.24,1.01-.59,2.61-.88,4.8-.88m0,19.76c2.19,0,3.77,.31,4.76,.92,.99,.61,1.6,1.39,1.84,2.32,.24,.93,.36,2.23,.36,3.88v28c0,1.65-.12,2.93-.36,3.84-.24,.91-.87,1.65-1.88,2.24-1.01,.59-2.61,.88-4.8,.88s-3.77-.29-4.76-.88c-.99-.59-1.6-1.35-1.84-2.28-.24-.93-.36-2.23-.36-3.88v-28.08c0-1.65,.12-2.93,.36-3.84,.24-.91,.87-1.65,1.88-2.24,1.01-.59,2.61-.88,4.8-.88m0-25.76c-3.34,0-5.82,.54-7.81,1.69-3.04,1.76-4.22,4.17-4.67,5.89-.38,1.43-.56,3.19-.56,5.38s.18,3.95,.56,5.37c.34,1.29,1.09,2.99,2.74,4.53-1.64,1.51-2.4,3.19-2.74,4.48-.38,1.43-.56,3.19-.56,5.38v28.08c0,2.18,.18,3.94,.55,5.37,.45,1.74,1.61,4.18,4.59,5.95,1.97,1.17,4.46,1.72,7.82,1.72s5.82-.54,7.81-1.69c3.04-1.76,4.22-4.18,4.67-5.9,.38-1.42,.56-3.18,.56-5.37v-28c0-2.18-.18-3.94-.55-5.38-.34-1.31-1.09-3.05-2.75-4.6,1.64-1.51,2.4-3.2,2.74-4.49,.38-1.42,.56-3.18,.56-5.38s-.18-3.95-.56-5.38c-.44-1.67-1.58-4.04-4.47-5.84-1.98-1.23-4.57-1.83-7.93-1.83h0Z"/></g><g><path class="cls-8" d="M136.24,70.84c-6.09,0-10.98-1.67-14.52-4.96-1.23-1.14-2.25-2.46-3.06-3.94-.11,2.28-.58,4.04-1.42,5.34-1.05,1.62-2.42,2.67-4.07,3.11-1.17,.31-2.65,.46-4.53,.46-6.09,0-10.98-1.67-14.52-4.96-3.61-3.35-5.44-8.23-5.44-14.52v-8.6c-2.86-.04-4.56-1.33-5.48-2.41-1.3-1.52-1.88-3.87-1.88-7.62s.68-6.15,2.13-7.65c1.33-1.38,3.14-2.15,5.23-2.22v-4.93c0-1.95,.15-3.44,.47-4.57,.32-1.14,1.16-2.75,3.3-3.91,1.47-.79,3.46-1.16,6.27-1.16s4.74,.43,6.21,1.3c2.1,1.25,2.91,2.93,3.21,4.11,.31,1.19,.46,2.7,.46,4.63v4.57s4.11-.05,4.12-.05c1.36,0,2.54,0,3.56,.03v-4.95c0-1.94,.15-3.44,.47-4.57,.32-1.15,1.16-2.75,3.3-3.91,1.47-.79,3.46-1.16,6.27-1.16s4.74,.43,6.21,1.3c2.11,1.26,2.91,2.93,3.21,4.11,.31,1.19,.45,2.7,.45,4.63v4.58c.75-.04,1.52-.06,2.28-.06,1.93,0,3.44,.15,4.61,.46,1.17,.31,2.82,1.13,4.07,3.27,.87,1.5,1.29,3.56,1.29,6.31s-.45,4.86-1.37,6.34c-1.28,2.06-2.92,2.85-4.06,3.16-1.17,.31-2.68,.46-4.61,.46h-.18l-2.02-.13v7.85c0,.5,.04,.85,.07,1.08h.05c2.06,0,3.62,.13,4.76,.4,1.73,.41,3.13,1.49,4.05,3.13,.77,1.38,1.14,3.25,1.14,5.71,0,2.8-.47,4.9-1.44,6.39-1.05,1.63-2.42,2.67-4.07,3.11-1.17,.31-2.65,.46-4.53,.46Zm-27.52-19.2c2.06,0,3.62,.13,4.76,.4,1.11,.26,2.08,.8,2.88,1.58-.06-.73-.08-1.49-.08-2.26v-8.62c-1.26,.07-2.4,.1-3.4,.1-1.42,0-2.86-.04-4.28-.11v7.83c0,.5,.04,.85,.07,1.08h.04Z"/><path d="M126.32,11.28c2.13,0,3.69,.29,4.68,.88,.99,.59,1.6,1.35,1.84,2.28,.24,.93,.36,2.23,.36,3.88v7.84c.37-.05,1.08-.12,2.12-.2s2.09-.12,3.16-.12c1.65,0,2.93,.12,3.84,.36,.91,.24,1.65,.87,2.24,1.88,.59,1.01,.88,2.61,.88,4.8s-.31,3.77-.92,4.76c-.61,.99-1.37,1.6-2.28,1.84-.91,.24-2.19,.36-3.84,.36l-5.2-.32v11.04c0,1.44,.23,2.48,.68,3.12,.45,.64,1.27,.96,2.44,.96,1.81,0,3.17,.11,4.08,.32,.91,.21,1.61,.77,2.12,1.68,.51,.91,.76,2.32,.76,4.24,0,2.19-.32,3.77-.96,4.76-.64,.99-1.41,1.6-2.32,1.84-.91,.24-2.16,.36-3.76,.36-5.33,0-9.49-1.39-12.48-4.16-2.99-2.77-4.48-6.88-4.48-12.32v-11.84c-.43,.05-1.33,.12-2.72,.2-1.39,.08-2.61,.12-3.68,.12-1.44,0-2.88-.04-4.32-.12-1.44-.08-2.43-.15-2.96-.2v11.04c0,1.44,.23,2.48,.68,3.12,.45,.64,1.27,.96,2.44,.96,1.81,0,3.17,.11,4.08,.32,.91,.21,1.61,.77,2.12,1.68,.51,.91,.76,2.32,.76,4.24,0,2.19-.32,3.77-.96,4.76-.64,.99-1.41,1.6-2.32,1.84-.91,.24-2.16,.36-3.76,.36-5.33,0-9.49-1.39-12.48-4.16-2.99-2.77-4.48-6.88-4.48-12.32v-11.84c-.16,.05-.52,.11-1.08,.16-.56,.05-1.16,.08-1.8,.08-1.44,0-2.55-.45-3.32-1.36-.77-.91-1.16-2.8-1.16-5.68s.43-4.68,1.28-5.56c.85-.88,2-1.32,3.44-1.32,.43,0,.93,.04,1.52,.12,.59,.08,.96,.15,1.12,.2v-8.24c0-1.65,.12-2.91,.36-3.76,.24-.85,.85-1.55,1.84-2.08,.99-.53,2.6-.8,4.84-.8s3.69,.29,4.68,.88c.99,.59,1.6,1.35,1.84,2.28,.24,.93,.36,2.23,.36,3.88v7.6l7.12-.08c1.65,0,3.07,.01,4.24,.04,1.17,.03,1.95,.04,2.32,.04v-8c0-1.65,.12-2.91,.36-3.76,.24-.85,.85-1.55,1.84-2.08,.99-.53,2.6-.8,4.84-.8m0-6c-3.33,0-5.77,.48-7.69,1.52-3.07,1.66-4.29,4.03-4.76,5.73-.4,1.43-.58,3.13-.58,5.39v1.92c-.18,0-.37,0-.56,0h-1.12v-1.52c0-2.18-.18-3.94-.55-5.38-.45-1.73-1.6-4.16-4.58-5.94-1.96-1.16-4.49-1.73-7.75-1.73s-5.77,.48-7.69,1.52c-3.07,1.66-4.28,4.03-4.76,5.73-.4,1.42-.59,3.13-.59,5.39v2.4c-1.68,.5-3.16,1.4-4.39,2.67-2.66,2.74-2.97,6.87-2.97,9.73,0,4.52,.8,7.47,2.6,9.58,1.25,1.46,2.88,2.5,4.76,3.04v6.03c0,7.15,2.15,12.78,6.4,16.72,4.12,3.82,9.69,5.76,16.56,5.76,2.14,0,3.87-.18,5.29-.56,1.65-.44,3.99-1.55,5.82-4.38,.1-.16,.2-.32,.3-.49,4.08,3.6,9.52,5.42,16.19,5.42,2.14,0,3.87-.18,5.29-.56,1.65-.44,3.99-1.55,5.82-4.38,1.3-2,1.93-4.62,1.93-8.02,0-2.98-.5-5.33-1.52-7.16-1.33-2.37-3.45-4-5.98-4.6-.75-.18-1.6-.3-2.58-.38v-2.91c1.83-.04,3.33-.22,4.57-.55,1.67-.44,4.04-1.58,5.84-4.47,1.23-1.98,1.82-4.57,1.82-7.93s-.55-5.84-1.69-7.8c-1.77-3.04-4.18-4.22-5.9-4.68-1.27-.34-2.8-.52-4.66-.55v-1.53c0-2.18-.18-3.94-.55-5.38-.44-1.73-1.6-4.16-4.58-5.94-1.96-1.16-4.49-1.73-7.75-1.73h0Zm-14.72,43.46v-2.91c.43,0,.85,0,1.28,0,.13,0,.26,0,.4,0v3.1c-.51-.09-1.07-.15-1.68-.2h0Z"/></g><g><path class="cls-10" d="M161.6,70.84c-2.76,0-4.82-.43-6.29-1.3-2.1-1.25-2.91-2.92-3.21-4.11-.31-1.19-.45-2.7-.45-4.63v-28.08c0-1.93,.15-3.44,.46-4.6,.31-1.17,1.13-2.83,3.28-4.07,1.03-.6,2.33-.98,3.94-1.16-1.67-.19-3.01-.6-4.06-1.25-2.06-1.28-2.85-2.91-3.16-4.06-.31-1.17-.46-2.68-.46-4.61s.15-3.43,.46-4.6c.31-1.17,1.13-2.83,3.28-4.07,1.49-.86,3.55-1.28,6.3-1.28s4.86,.45,6.34,1.37c2.06,1.28,2.85,2.92,3.16,4.06,.31,1.17,.46,2.68,.46,4.61s-.15,3.44-.46,4.61c-.31,1.17-1.13,2.83-3.28,4.07-1.03,.6-2.33,.98-3.94,1.16,1.67,.19,3.01,.6,4.06,1.25,2.07,1.29,2.86,2.95,3.16,4.12,.31,1.19,.46,2.7,.46,4.63v28c0,1.93-.15,3.44-.46,4.61-.31,1.17-1.13,2.82-3.28,4.07-1.49,.86-3.55,1.28-6.3,1.28Z"/><path d="M161.68,6c2.19,0,3.77,.31,4.76,.92,.99,.61,1.6,1.37,1.84,2.28,.24,.91,.36,2.19,.36,3.84s-.12,2.93-.36,3.84c-.24,.91-.87,1.65-1.88,2.24-1.01,.59-2.61,.88-4.8,.88s-3.77-.31-4.76-.92c-.99-.61-1.6-1.37-1.84-2.28-.24-.91-.36-2.19-.36-3.84s.12-2.93,.36-3.84c.24-.91,.87-1.65,1.88-2.24,1.01-.59,2.61-.88,4.8-.88m0,19.76c2.19,0,3.77,.31,4.76,.92,.99,.61,1.6,1.39,1.84,2.32,.24,.93,.36,2.23,.36,3.88v28c0,1.65-.12,2.93-.36,3.84-.24,.91-.87,1.65-1.88,2.24-1.01,.59-2.61,.88-4.8,.88s-3.77-.29-4.76-.88c-.99-.59-1.6-1.35-1.84-2.28-.24-.93-.36-2.23-.36-3.88v-28.08c0-1.65,.12-2.93,.36-3.84,.24-.91,.87-1.65,1.88-2.24,1.01-.59,2.61-.88,4.8-.88m0-25.76c-3.34,0-5.82,.54-7.81,1.69-3.04,1.76-4.22,4.17-4.67,5.89-.38,1.43-.56,3.19-.56,5.38s.18,3.95,.56,5.37c.34,1.29,1.09,2.99,2.74,4.53-1.64,1.51-2.4,3.19-2.74,4.48-.38,1.43-.56,3.19-.56,5.38v28.08c0,2.18,.18,3.94,.55,5.37,.45,1.74,1.61,4.18,4.59,5.95,1.97,1.17,4.46,1.72,7.82,1.72s5.82-.54,7.81-1.69c3.04-1.76,4.22-4.18,4.67-5.9,.38-1.42,.56-3.18,.56-5.37v-28c0-2.18-.18-3.94-.55-5.38-.34-1.31-1.09-3.05-2.75-4.6,1.64-1.51,2.4-3.2,2.74-4.49,.38-1.42,.56-3.18,.56-5.38s-.18-3.95-.56-5.38c-.44-1.67-1.58-4.04-4.47-5.84-1.98-1.23-4.57-1.83-7.93-1.83h0Z"/></g><g><path class="cls-5" d="M210.88,70.76c-2.77,0-4.85-.44-6.36-1.35-2.11-1.27-2.92-2.92-3.23-4.08-.31-1.17-.46-2.68-.46-4.61v-14.08c0-2.02-.74-2.74-.98-2.98-.67-.66-1.65-.98-2.98-.98-1.7,0-2.51,.61-2.98,1.06-.46,.45-1.06,1.23-1.06,2.9v14.16c0,1.93-.15,3.44-.46,4.61-.31,1.17-1.13,2.82-3.28,4.07-1.49,.86-3.55,1.28-6.3,1.28s-4.82-.43-6.29-1.3c-2.1-1.25-2.91-2.92-3.21-4.11-.31-1.19-.45-2.7-.45-4.63v-28.32c0-1.88,.15-3.36,.46-4.51,.32-1.16,1.15-2.8,3.33-4,1.47-.82,3.52-1.21,6.25-1.21s4.58,.38,6.02,1.16c.83,.45,1.53,.97,2.07,1.56,.63-.44,1.32-.86,2.06-1.25,1.85-.97,3.95-1.47,6.24-1.47,4.1,0,7.88,1.12,11.22,3.34,3.28,2.18,5.88,5.14,7.71,8.8,1.8,3.6,2.72,7.61,2.72,11.9v14.08c0,1.93-.15,3.44-.46,4.61-.31,1.17-1.13,2.82-3.28,4.07-1.49,.86-3.55,1.28-6.3,1.28Z"/><path d="M199.28,25.68c3.52,0,6.71,.95,9.56,2.84,2.85,1.89,5.08,4.44,6.68,7.64,1.6,3.2,2.4,6.72,2.4,10.56v14.08c0,1.65-.12,2.93-.36,3.84-.24,.91-.87,1.65-1.88,2.24-1.01,.59-2.61,.88-4.8,.88s-3.79-.31-4.8-.92c-1.01-.61-1.64-1.37-1.88-2.28-.24-.91-.36-2.19-.36-3.84v-14.08c0-2.19-.63-3.89-1.88-5.12-1.25-1.23-2.95-1.84-5.08-1.84s-3.77,.64-5.08,1.92c-1.31,1.28-1.96,2.96-1.96,5.04v14.16c0,1.65-.12,2.93-.36,3.84-.24,.91-.87,1.65-1.88,2.24-1.01,.59-2.61,.88-4.8,.88s-3.77-.29-4.76-.88c-.99-.59-1.6-1.35-1.84-2.28-.24-.93-.36-2.23-.36-3.88v-28.32c0-1.6,.12-2.84,.36-3.72,.24-.88,.87-1.6,1.88-2.16,1.01-.56,2.61-.84,4.8-.84s3.61,.27,4.6,.8c.99,.53,1.6,1.15,1.84,1.84,.24,.69,.36,1.52,.36,2.48,0-.11,.44-.61,1.32-1.52,.88-.91,2.03-1.73,3.44-2.48,1.41-.75,3.03-1.12,4.84-1.12m0-6c-2.79,0-5.36,.61-7.64,1.81-.14,.08-.28,.15-.42,.23-.28-.18-.57-.36-.88-.52-1.93-1.04-4.29-1.52-7.45-1.52s-5.74,.51-7.71,1.59c-3.09,1.7-4.29,4.11-4.76,5.83-.39,1.42-.57,3.15-.57,5.3v28.32c0,2.18,.18,3.94,.55,5.37,.45,1.74,1.61,4.18,4.59,5.95,1.97,1.17,4.46,1.72,7.82,1.72s5.82-.54,7.81-1.69c3.04-1.76,4.22-4.18,4.67-5.9,.38-1.42,.56-3.18,.56-5.37v-14.16c0-.6,.12-.71,.16-.75,.06-.06,.21-.21,.88-.21,.55,0,.79,.09,.86,.12,.03,.09,.1,.34,.1,.84v14.08c0,2.19,.18,3.95,.56,5.37,.45,1.7,1.61,4.09,4.58,5.89,1.97,1.2,4.56,1.78,7.9,1.78s5.82-.54,7.81-1.69c3.04-1.76,4.22-4.18,4.67-5.9,.38-1.42,.56-3.18,.56-5.37v-14.08c0-4.76-1.02-9.22-3.03-13.24-2.07-4.13-5-7.48-8.73-9.95-3.84-2.55-8.18-3.84-12.88-3.84h0Z"/></g><g><path class="cls-2" d="M244.72,89c-3.04,0-6.09-.53-9.04-1.57-2.93-1.04-5.41-2.34-7.37-3.86-2.5-1.95-3.71-3.88-3.71-5.88,0-2.75,1-5.21,2.96-7.32l.26-.27c1.14-1.26,2-2.1,2.72-2.64,.56-.43,1.18-.75,1.84-.96-.11-.07-.23-.14-.34-.22-3.27-2.12-5.96-4.99-8.01-8.54-2.07-3.59-3.12-7.54-3.12-11.74s1.05-7.9,3.12-11.5c2.04-3.55,4.76-6.43,8.06-8.55,3.39-2.17,6.91-3.28,10.46-3.28,3.14,0,5.76,.68,7.8,2.01,.19,.12,.38,.25,.55,.37,.22-.25,.47-.48,.73-.69,1.52-1.26,3.8-1.85,7.16-1.85,2.65,0,4.66,.43,6.13,1.3,2.13,1.27,2.91,2.95,3.19,4.13,.27,1.15,.4,2.61,.4,4.45v33.12c0,4.73-1.19,8.95-3.53,12.52-2.31,3.52-5.34,6.26-9.02,8.15-3.64,1.86-7.43,2.81-11.25,2.81Zm-2.91-19.32c.47,.2,1.4,.44,3.15,.44,1.11,0,1.89-.38,2.6-1.25-1.55,.46-3.23,.69-5,.69-.36,0-.73-.01-1.09-.03,.12,.05,.23,.1,.34,.15Zm2.67-27.4c-1.17,0-2.01,.36-2.72,1.15-.79,.89-1.16,1.76-1.16,2.73s.38,1.8,1.18,2.62c.8,.82,1.68,1.18,2.86,1.18,1.07,0,1.87-.35,2.58-1.13,.78-.86,1.15-1.71,1.15-2.67s-.37-1.84-1.14-2.76c-.44-.52-1.15-1.12-2.74-1.12Z"/><path d="M258.8,25.52c2.08,0,3.61,.29,4.6,.88,.99,.59,1.59,1.33,1.8,2.24,.21,.91,.32,2.16,.32,3.76v33.12c0,4.16-1.01,7.79-3.04,10.88-2.03,3.09-4.65,5.47-7.88,7.12-3.23,1.65-6.52,2.48-9.88,2.48-2.72,0-5.4-.47-8.04-1.4-2.64-.93-4.81-2.07-6.52-3.4-1.71-1.33-2.56-2.51-2.56-3.52,0-1.97,.72-3.73,2.16-5.28l.24-.24c1.01-1.12,1.8-1.89,2.36-2.32,.56-.43,1.21-.64,1.96-.64,.48,0,.95,.11,1.4,.32,.45,.21,.97,.56,1.56,1.04,1.17,.8,2.29,1.43,3.36,1.88,1.07,.45,2.51,.68,4.32,.68,2.03,0,3.68-.8,4.96-2.4s1.92-3.52,1.92-5.76v-2.4c-1.01,1.33-2.32,2.33-3.92,3-1.6,.67-3.39,1-5.36,1-3.04,0-6-.93-8.88-2.8-2.88-1.87-5.23-4.37-7.04-7.52-1.81-3.15-2.72-6.56-2.72-10.24s.91-6.85,2.72-10c1.81-3.15,4.17-5.65,7.08-7.52,2.91-1.87,5.85-2.8,8.84-2.8,2.56,0,4.61,.51,6.16,1.52,1.55,1.01,2.61,1.97,3.2,2.88,.16-1.49,.71-2.63,1.64-3.4,.93-.77,2.68-1.16,5.24-1.16m-14.16,27.44c1.92,0,3.52-.71,4.8-2.12,1.28-1.41,1.92-2.97,1.92-4.68s-.61-3.21-1.84-4.68c-1.23-1.47-2.91-2.2-5.04-2.2s-3.68,.72-4.96,2.16c-1.28,1.44-1.92,3.01-1.92,4.72s.68,3.33,2.04,4.72c1.36,1.39,3.03,2.08,5,2.08m14.16-33.44c-3.53,0-6.16,.6-8.16,1.88-2.28-1.14-4.99-1.72-8.08-1.72-4.14,0-8.21,1.26-12.08,3.75-3.71,2.38-6.75,5.6-9.04,9.57-2.34,4.05-3.52,8.43-3.52,12.99s1.18,9.18,3.52,13.24c1.58,2.75,3.52,5.14,5.79,7.14-.48,.46-1,1.01-1.58,1.64l-.14,.14-.08,.08-.07,.08c-2.47,2.65-3.77,5.89-3.77,9.37,0,4.45,3.66,7.31,4.87,8.25,2.21,1.73,4.97,3.18,8.21,4.33,3.28,1.16,6.65,1.74,10.04,1.74,4.3,0,8.55-1.06,12.61-3.14,4.15-2.13,7.57-5.21,10.16-9.17,2.67-4.08,4.02-8.84,4.02-14.17V32.4c0-2.07-.16-3.75-.48-5.12-.42-1.76-1.54-4.22-4.57-6.03-1.96-1.16-4.47-1.73-7.67-1.73h0Zm-14.16,27.44c-.4,0-.51-.07-.72-.28-.32-.33-.32-.45-.32-.52,0-.08,0-.28,.41-.73,.06-.07,.1-.1,.11-.1,0,0,.1-.04,.36-.04,.24,0,.37,.03,.43,.04,.23,.27,.45,.6,.45,.84,0,.08,0,.25-.37,.65-.08,.09-.13,.13-.14,.13,0,0-.08,.02-.21,.02h0Z"/></g><g><path class="cls-6" d="M313.84,71.64c-4.43,0-8.3-.77-11.52-2.29-3.12-1.47-5.62-3.12-7.42-4.9-1.55-1.52-2.44-2.48-2.88-3.34-.66-.84-1.17-1.57-1.55-2.25-.6-1.06-.91-2.25-.91-3.52,0-2.47,1.42-5.05,4.34-7.91,1.92-1.85,3.97-2.77,6.1-2.77,1.74,0,3.35,.51,4.77,1.51,1.06,.75,2.18,1.72,3.43,2.97l.55,.55,.13,.17h0s.19,.22,.87,.87c.44,.42,1.07,.85,1.87,1.28,.6,.32,1.22,.48,1.9,.48,2.87,0,3.59-.67,3.67-.75,.33-.35,.77-.97,.77-2.33,0-.17,0-.24-.4-.45-.79-.4-2.51-1.08-6.14-2-3.86-.94-7.16-2-9.79-3.16-2.94-1.3-5.53-3.41-7.67-6.27-2.23-2.97-3.36-6.94-3.36-11.8,0-3.5,.9-6.86,2.67-9.99,1.79-3.17,4.43-5.75,7.87-7.66,3.4-1.9,7.43-2.86,11.98-2.86,3.49,0,6.6,.42,9.23,1.26,2.62,.83,4.66,1.73,6.23,2.73,1.07,.69,1.91,1.22,2.48,1.8l.27,.22,.08,.08c1.01,.95,1.75,1.76,2.27,2.49,.76,1.06,1.16,2.28,1.16,3.54,0,1.78-.78,3.74-2.45,6.18-2.39,3.52-5.11,5.3-8.08,5.3-1.73,0-3.62-.68-5.79-2.08l-.12-.08-.12-.09c-.3-.24-.76-.64-1.39-1.21-.18-.17-.56-.42-1.27-.69-.4-.15-1.19-.33-2.59-.33-.65,0-1.25,.21-1.89,.67-.44,.32-.47,.53-.47,.81,0,.81,.23,1.06,.74,1.32,.93,.46,2.83,1.17,6.66,1.9,3.89,.84,7.09,1.77,9.59,2.76,2.87,1.14,5.35,3.12,7.39,5.89,2.09,2.84,3.14,6.7,3.14,11.5,0,5.13-1.32,9.47-3.93,12.9-2.53,3.33-5.73,5.79-9.5,7.32-3.63,1.47-7.3,2.22-10.93,2.22Z"/><path d="M313.12,8.24c3.2,0,5.97,.37,8.32,1.12,2.35,.75,4.19,1.55,5.52,2.4,1.33,.85,2,1.33,2,1.44l.4,.32c.85,.8,1.48,1.48,1.88,2.04,.4,.56,.6,1.16,.6,1.8,0,1.12-.64,2.61-1.92,4.48-1.81,2.67-3.68,4-5.6,4-1.12,0-2.51-.53-4.16-1.6-.27-.21-.68-.57-1.24-1.08-.56-.51-1.31-.93-2.24-1.28-.93-.35-2.15-.52-3.64-.52-1.28,0-2.49,.41-3.64,1.24-1.15,.83-1.72,1.91-1.72,3.24,0,1.87,.8,3.2,2.4,4,1.6,.8,4.08,1.52,7.44,2.16,3.68,.8,6.69,1.67,9.04,2.6,2.35,.93,4.37,2.56,6.08,4.88,1.71,2.32,2.56,5.56,2.56,9.72,0,4.48-1.11,8.17-3.32,11.08-2.21,2.91-4.96,5.03-8.24,6.36s-6.55,2-9.8,2c-4,0-7.41-.67-10.24-2-2.83-1.33-5.03-2.77-6.6-4.32-1.57-1.55-2.36-2.45-2.36-2.72-.69-.85-1.21-1.59-1.56-2.2-.35-.61-.52-1.29-.52-2.04,0-1.6,1.15-3.52,3.44-5.76,1.33-1.28,2.67-1.92,4-1.92,1.12,0,2.13,.32,3.04,.96,.91,.64,1.92,1.52,3.04,2.64l.4,.4c.16,.21,.56,.63,1.2,1.24,.64,.61,1.48,1.2,2.52,1.76s2.15,.84,3.32,.84c2.83,0,4.77-.56,5.84-1.68,1.07-1.12,1.6-2.59,1.6-4.4,0-1.39-.68-2.43-2.04-3.12-1.36-.69-3.61-1.44-6.76-2.24-3.73-.91-6.84-1.91-9.32-3-2.48-1.09-4.64-2.87-6.48-5.32-1.84-2.45-2.76-5.79-2.76-10,0-2.99,.76-5.83,2.28-8.52,1.52-2.69,3.76-4.87,6.72-6.52,2.96-1.65,6.47-2.48,10.52-2.48m0-6c-5.07,0-9.59,1.09-13.44,3.24-3.92,2.19-6.96,5.16-9.02,8.81-2.03,3.59-3.05,7.45-3.05,11.47,0,5.52,1.33,10.1,3.96,13.6,1.02,1.37,2.14,2.59,3.34,3.65-.99,.53-2.02,1.27-3.06,2.26-3.57,3.48-5.28,6.77-5.28,10.09,0,1.79,.44,3.47,1.3,4.99,.43,.75,.97,1.56,1.67,2.45,.77,1.34,1.97,2.51,3.27,3.79,2.07,2.04,4.77,3.83,8.25,5.47,3.62,1.71,7.93,2.57,12.8,2.57,4.01,0,8.07-.82,12.06-2.44,4.27-1.74,7.89-4.52,10.76-8.28,3.02-3.96,4.55-8.91,4.55-14.71,0-5.45-1.25-9.91-3.73-13.27-1.96-2.66-4.29-4.71-6.96-6.1,1.56-1.09,3.02-2.63,4.36-4.61,2.01-2.94,2.96-5.44,2.96-7.85,0-1.89-.6-3.72-1.72-5.29-.63-.88-1.5-1.84-2.65-2.92l-.17-.16-.18-.15-.18-.15c-.81-.75-1.78-1.37-2.73-1.98-1.8-1.15-4.07-2.15-6.94-3.07-2.93-.93-6.34-1.4-10.14-1.4h0Z"/></g><g><path class="cls-11" d="M361.92,70.84c-6.27,0-11.18-1.51-14.61-4.5-3.55-3.09-5.35-8.13-5.35-14.98v-8.6c-2.86-.04-4.56-1.33-5.48-2.41-1.3-1.52-1.88-3.87-1.88-7.62s.68-6.15,2.13-7.65c1.33-1.38,3.14-2.15,5.23-2.22v-4.93c0-1.95,.15-3.44,.47-4.57,.32-1.14,1.16-2.75,3.3-3.91,1.47-.79,3.46-1.16,6.27-1.16s4.74,.43,6.21,1.3c2.1,1.25,2.91,2.93,3.21,4.11,.31,1.19,.46,2.7,.46,4.63v4.58c.75-.04,1.52-.06,2.28-.06,1.93,0,3.44,.15,4.61,.46,1.17,.31,2.83,1.13,4.07,3.28,.86,1.5,1.28,3.56,1.28,6.3s-.45,4.86-1.37,6.34c-1.28,2.06-2.91,2.85-4.06,3.16-1.17,.31-2.68,.46-4.61,.46h-.18l-2.01-.13v7.85c0,.5,.04,.85,.07,1.08h.04c2.06,0,3.62,.13,4.76,.4,1.74,.41,3.14,1.49,4.05,3.14,.77,1.38,1.14,3.24,1.14,5.7,0,2.81-.47,4.9-1.44,6.39-1.05,1.62-2.42,2.67-4.07,3.11-1.17,.31-2.65,.46-4.53,.46Z"/><path d="M352,11.28c2.13,0,3.69,.29,4.68,.88,.99,.59,1.6,1.35,1.84,2.28,.24,.93,.36,2.23,.36,3.88v7.84c.37-.05,1.08-.12,2.12-.2s2.09-.12,3.16-.12c1.65,0,2.93,.12,3.84,.36,.91,.24,1.65,.87,2.24,1.88,.59,1.01,.88,2.61,.88,4.8s-.31,3.77-.92,4.76c-.61,.99-1.37,1.6-2.28,1.84-.91,.24-2.19,.36-3.84,.36l-5.2-.32v11.04c0,1.44,.23,2.48,.68,3.12,.45,.64,1.27,.96,2.44,.96,1.81,0,3.17,.11,4.08,.32,.91,.21,1.61,.77,2.12,1.68,.51,.91,.76,2.32,.76,4.24,0,2.19-.32,3.77-.96,4.76-.64,.99-1.41,1.6-2.32,1.84-.91,.24-2.16,.36-3.76,.36-5.55,0-9.76-1.25-12.64-3.76-2.88-2.51-4.32-6.75-4.32-12.72v-11.84c-.16,.05-.51,.11-1.04,.16-.53,.05-1.15,.08-1.84,.08-1.44,0-2.55-.45-3.32-1.36-.77-.91-1.16-2.8-1.16-5.68s.43-4.68,1.28-5.56c.85-.88,2-1.32,3.44-1.32,.43,0,.93,.04,1.52,.12,.59,.08,.96,.15,1.12,.2v-8.24c0-1.65,.12-2.91,.36-3.76,.24-.85,.85-1.55,1.84-2.08,.99-.53,2.6-.8,4.84-.8m0-6c-3.33,0-5.77,.48-7.69,1.52-3.07,1.66-4.28,4.03-4.76,5.73-.4,1.42-.59,3.13-.59,5.39v2.4c-1.68,.5-3.16,1.4-4.39,2.67-2.66,2.74-2.97,6.87-2.97,9.73,0,4.52,.8,7.47,2.6,9.58,1.25,1.46,2.88,2.5,4.76,3.04v6.03c0,7.76,2.15,13.56,6.38,17.25,3.99,3.47,9.57,5.23,16.58,5.23,2.14,0,3.87-.18,5.29-.56,1.65-.44,3.99-1.55,5.82-4.38,1.29-1.99,1.92-4.62,1.92-8.02,0-2.99-.5-5.33-1.52-7.17-1.32-2.37-3.45-4-5.98-4.59-.75-.18-1.6-.3-2.58-.38v-2.91c1.82-.04,3.33-.22,4.57-.55,1.68-.44,4.05-1.58,5.84-4.48,1.23-1.97,1.82-4.57,1.82-7.92s-.55-5.84-1.69-7.8c-1.76-3.04-4.18-4.22-5.9-4.68-1.27-.34-2.8-.52-4.66-.55v-1.53c0-2.18-.18-3.94-.55-5.38-.45-1.73-1.6-4.16-4.58-5.94-1.96-1.16-4.49-1.73-7.75-1.73h0Z"/></g><g><path class="cls-7" d="M410.56,70.68c-3.08,0-5.32-.54-6.85-1.66-.31-.22-.59-.47-.85-.73-.27,.18-.55,.37-.85,.55-2.02,1.24-4.59,1.84-7.85,1.84-3.67,0-7.27-1.13-10.71-3.36-3.36-2.18-6.11-5.14-8.18-8.8-2.09-3.69-3.15-7.72-3.15-11.96s1.08-8.1,3.21-11.75c2.09-3.59,4.83-6.51,8.15-8.68,3.42-2.24,7.01-3.37,10.68-3.37,3.13,0,5.74,.66,7.77,1.95,.26,.17,.52,.34,.76,.51,.3-.32,.61-.59,.9-.81,1.56-1.18,3.8-1.73,7.05-1.73,2.78,0,4.85,.45,6.34,1.37,2.06,1.28,2.86,2.92,3.16,4.06,.31,1.17,.46,2.68,.46,4.61v28c0,1.93-.15,3.44-.46,4.61-.31,1.17-1.13,2.82-3.28,4.07-1.49,.86-3.55,1.28-6.3,1.28Zm-14.4-28c-1.22,0-2.09,.38-2.82,1.22-.83,.95-1.22,1.87-1.22,2.9,0,.61,.13,1.54,1.22,2.66,.82,.83,1.76,1.22,2.98,1.22,1.07,0,1.88-.36,2.62-1.18,.81-.89,1.18-1.77,1.18-2.78s-.39-1.93-1.18-2.87c-.68-.81-1.54-1.17-2.78-1.17Z"/><path d="M410.64,25.68c2.19,0,3.77,.31,4.76,.92,.99,.61,1.6,1.37,1.84,2.28,.24,.91,.36,2.19,.36,3.84v28c0,1.65-.12,2.93-.36,3.84-.24,.91-.87,1.65-1.88,2.24-1.01,.59-2.61,.88-4.8,.88-2.4,0-4.09-.36-5.08-1.08-.99-.72-1.56-1.77-1.72-3.16-.69,.96-1.8,1.91-3.32,2.84-1.52,.93-3.61,1.4-6.28,1.4-3.09,0-6.12-.96-9.08-2.88s-5.36-4.51-7.2-7.76c-1.84-3.25-2.76-6.75-2.76-10.48s.93-7.04,2.8-10.24c1.87-3.2,4.27-5.76,7.2-7.68,2.93-1.92,5.95-2.88,9.04-2.88,2.56,0,4.61,.49,6.16,1.48,1.55,.99,2.67,1.96,3.36,2.92,.16-1.49,.73-2.61,1.72-3.36,.99-.75,2.73-1.12,5.24-1.12m-14.32,28c1.92,0,3.53-.72,4.84-2.16,1.31-1.44,1.96-3.04,1.96-4.8s-.63-3.31-1.88-4.8c-1.25-1.49-2.95-2.24-5.08-2.24s-3.77,.75-5.08,2.24c-1.31,1.49-1.96,3.12-1.96,4.88s.69,3.35,2.08,4.76c1.39,1.41,3.09,2.12,5.12,2.12m14.32-34c-3.54,0-6.17,.6-8.19,1.87-2.32-1.19-5.1-1.79-8.29-1.79-4.27,0-8.41,1.3-12.33,3.86-3.71,2.43-6.77,5.68-9.1,9.68-2.4,4.11-3.62,8.58-3.62,13.26s1.19,9.28,3.54,13.43c2.31,4.09,5.39,7.4,9.16,9.84,3.93,2.55,8.09,3.85,12.35,3.85,3.37,0,6.16-.58,8.49-1.76,1.99,1.2,4.53,1.76,7.91,1.76s5.82-.54,7.81-1.69c3.04-1.76,4.22-4.18,4.67-5.9,.38-1.42,.56-3.18,.56-5.38v-28c0-2.19-.18-3.95-.56-5.38-.44-1.67-1.58-4.04-4.47-5.84-1.98-1.23-4.57-1.83-7.93-1.83h0Zm-14.32,28c-.47,0-.62-.1-.84-.32-.36-.37-.36-.51-.36-.56,0-.13,0-.39,.47-.93,.13-.15,.17-.19,.57-.19,.25,0,.4,.03,.44,.05,0,0,.02,.02,.05,.05,.47,.57,.47,.84,.47,.94,0,.12,0,.32-.4,.77-.11,.12-.18,.16-.19,.17h0s-.06,.02-.2,.02h0Z"/></g><g><path class="cls-4" d="M431.76,70.84c-2.79,0-4.86-.45-6.34-1.37-2.07-1.28-2.86-2.95-3.16-4.12-.31-1.19-.45-2.7-.45-4.63v-28.08c0-1.93,.15-3.43,.46-4.6,.31-1.17,1.13-2.83,3.28-4.07,1.49-.86,3.55-1.28,6.3-1.28,3.9,0,6.4,.74,7.86,2.34,.03,.03,.06,.06,.09,.1,.71-.5,1.5-.97,2.36-1.42,1.81-.94,3.84-1.42,6.02-1.42,2.4,0,4.77,.46,7.04,1.38,3.07,1.24,4.76,3.72,4.76,6.98,0,2.75-.62,5.38-1.84,7.82-1.51,3.03-4.03,4.7-7.08,4.7-.96,0-1.77-.11-2.5-.34-.51-.16-1.01-.34-1.48-.54l-.16-.07c-.44-.22-.86-.32-1.3-.32-1.28,0-2.24,.28-2.95,.85-.67,.54-.77,.97-.77,1.35v16.8c0,1.93-.15,3.44-.46,4.61-.31,1.17-1.13,2.82-3.28,4.07-1.49,.86-3.58,1.28-6.38,1.28Z"/><path d="M448.16,25.28c2.03,0,4,.39,5.92,1.16,1.92,.77,2.88,2.17,2.88,4.2,0,2.29-.51,4.45-1.52,6.48-1.01,2.03-2.48,3.04-4.4,3.04-.64,0-1.17-.07-1.6-.2-.43-.13-.83-.28-1.2-.44-.85-.43-1.73-.64-2.64-.64-1.97,0-3.59,.51-4.84,1.52-1.25,1.01-1.88,2.24-1.88,3.68v16.8c0,1.65-.12,2.93-.36,3.84-.24,.91-.87,1.65-1.88,2.24-1.01,.59-2.64,.88-4.88,.88s-3.77-.31-4.76-.92c-.99-.61-1.6-1.39-1.84-2.32-.24-.93-.36-2.23-.36-3.88v-28.08c0-1.65,.12-2.93,.36-3.84,.24-.91,.87-1.65,1.88-2.24,1.01-.59,2.61-.88,4.8-.88,2.93,0,4.81,.45,5.64,1.36,.83,.91,1.24,1.95,1.24,3.12,0-.11,.45-.59,1.36-1.44,.91-.85,2.05-1.64,3.44-2.36,1.39-.72,2.93-1.08,4.64-1.08m0-6c-2.67,0-5.16,.59-7.41,1.76-.26,.13-.51,.27-.75,.41-2.58-1.55-5.78-1.76-8.16-1.76-3.29,0-5.85,.55-7.81,1.69-3.04,1.76-4.22,4.17-4.67,5.89-.38,1.43-.56,3.19-.56,5.38v28.08c0,2.18,.18,3.94,.55,5.37,.44,1.71,1.57,4.12,4.49,5.93,1.99,1.24,4.51,1.82,7.92,1.82s5.9-.54,7.89-1.69c3.04-1.76,4.22-4.18,4.67-5.9,.38-1.42,.56-3.18,.56-5.37v-15.94c.16-.03,.38-.06,.66-.06l.13,.07,.21,.09c.57,.24,1.17,.46,1.78,.65,1,.31,2.11,.47,3.38,.47,4.19,0,7.75-2.32,9.77-6.36,1.43-2.86,2.15-5.94,2.15-9.16,0-4.51-2.42-8.07-6.64-9.77-2.63-1.06-5.38-1.59-8.16-1.59h0Z"/></g><g><path class="cls-3" d="M491.49,70.84c-6.27,0-11.18-1.51-14.61-4.5-3.55-3.09-5.35-8.13-5.35-14.98v-8.6c-2.86-.04-4.56-1.33-5.48-2.41-1.3-1.52-1.88-3.87-1.88-7.62s.68-6.15,2.13-7.65c1.33-1.38,3.14-2.15,5.23-2.22v-4.93c0-1.95,.15-3.44,.47-4.57,.32-1.14,1.16-2.75,3.3-3.91,1.47-.79,3.46-1.16,6.27-1.16s4.74,.43,6.21,1.3c2.1,1.25,2.91,2.93,3.21,4.11,.31,1.19,.46,2.7,.46,4.63v4.58c.75-.04,1.52-.06,2.28-.06,1.93,0,3.44,.15,4.61,.46,1.17,.31,2.83,1.13,4.07,3.28,.86,1.5,1.28,3.56,1.28,6.3s-.45,4.86-1.37,6.34c-1.28,2.06-2.91,2.85-4.06,3.16-1.17,.31-2.68,.46-4.61,.46h-.18l-2.01-.13v7.85c0,.5,.04,.85,.07,1.08h.04c2.06,0,3.62,.13,4.76,.4,1.74,.41,3.14,1.49,4.05,3.14,.77,1.38,1.14,3.24,1.14,5.7,0,2.81-.47,4.9-1.44,6.39-1.05,1.62-2.42,2.67-4.07,3.11-1.17,.31-2.65,.46-4.53,.46Z"/><path d="M481.57,11.28c2.13,0,3.69,.29,4.68,.88,.99,.59,1.6,1.35,1.84,2.28,.24,.93,.36,2.23,.36,3.88v7.84c.37-.05,1.08-.12,2.12-.2s2.09-.12,3.16-.12c1.65,0,2.93,.12,3.84,.36,.91,.24,1.65,.87,2.24,1.88,.59,1.01,.88,2.61,.88,4.8s-.31,3.77-.92,4.76c-.61,.99-1.37,1.6-2.28,1.84-.91,.24-2.19,.36-3.84,.36l-5.2-.32v11.04c0,1.44,.23,2.48,.68,3.12,.45,.64,1.27,.96,2.44,.96,1.81,0,3.17,.11,4.08,.32,.91,.21,1.61,.77,2.12,1.68,.51,.91,.76,2.32,.76,4.24,0,2.19-.32,3.77-.96,4.76-.64,.99-1.41,1.6-2.32,1.84-.91,.24-2.16,.36-3.76,.36-5.55,0-9.76-1.25-12.64-3.76-2.88-2.51-4.32-6.75-4.32-12.72v-11.84c-.16,.05-.51,.11-1.04,.16-.53,.05-1.15,.08-1.84,.08-1.44,0-2.55-.45-3.32-1.36-.77-.91-1.16-2.8-1.16-5.68s.43-4.68,1.28-5.56c.85-.88,2-1.32,3.44-1.32,.43,0,.93,.04,1.52,.12,.59,.08,.96,.15,1.12,.2v-8.24c0-1.65,.12-2.91,.36-3.76,.24-.85,.85-1.55,1.84-2.08,.99-.53,2.6-.8,4.84-.8m0-6c-3.33,0-5.77,.48-7.69,1.52-3.07,1.66-4.28,4.03-4.76,5.73-.4,1.42-.59,3.13-.59,5.39v2.4c-1.68,.5-3.16,1.4-4.39,2.67-2.66,2.74-2.97,6.87-2.97,9.73,0,4.52,.8,7.47,2.6,9.58,1.25,1.46,2.88,2.5,4.76,3.04v6.03c0,7.76,2.15,13.56,6.38,17.25,3.99,3.47,9.57,5.23,16.58,5.23,2.14,0,3.87-.18,5.29-.56,1.65-.44,3.99-1.55,5.82-4.38,1.29-1.99,1.92-4.62,1.92-8.02,0-2.99-.5-5.33-1.52-7.17-1.32-2.37-3.45-4-5.98-4.59-.75-.18-1.6-.3-2.58-.38v-2.91c1.82-.04,3.33-.22,4.57-.55,1.68-.44,4.05-1.58,5.84-4.48,1.23-1.97,1.82-4.57,1.82-7.92s-.55-5.84-1.69-7.8c-1.76-3.04-4.18-4.22-5.9-4.68-1.27-.34-2.8-.52-4.66-.55v-1.53c0-2.18-.18-3.94-.55-5.38-.45-1.73-1.6-4.16-4.58-5.94-1.96-1.16-4.49-1.73-7.75-1.73h0Z"/></g><g><path class="cls-12" d="M531.81,71.88c-5.79,0-10.68-1.27-14.55-3.76-3.85-2.48-6.72-5.7-8.53-9.57-1.75-3.74-2.64-7.64-2.64-11.59,0-5.01,1.17-9.49,3.47-13.31,2.3-3.82,5.46-6.79,9.39-8.83,3.86-2,8.21-3.02,12.94-3.02s8.92,1.02,12.24,3.04c3.31,2.01,5.8,4.57,7.41,7.6,1.59,2.98,2.39,5.99,2.39,8.93,0,4.35-1.13,7.64-3.35,9.8-.86,.83-1.77,1.5-2.72,2.01,.93,.8,1.85,1.95,2.65,3.6,.91,1.89,1.34,3.52,1.34,5,0,2.48-.98,6.89-7.51,8.62-3.76,1-7.97,1.5-12.53,1.5Zm2.18-30.8c-.04-.07-.1-.12-.18-.18-.17-.14-.73-.46-2.16-.46-.57,0-1.26,.21-2.05,.62l-.04,.02h4.43Z"/><path d="M531.89,24.8c4.27,0,7.83,.87,10.68,2.6,2.85,1.73,4.96,3.88,6.32,6.44,1.36,2.56,2.04,5.07,2.04,7.52,0,3.52-.81,6.07-2.44,7.64-1.63,1.57-3.43,2.36-5.4,2.36h-18.96c0,1.49,.88,2.75,2.64,3.76,1.76,1.01,3.65,1.52,5.68,1.52,1.44,0,2.73-.09,3.88-.28,1.15-.19,2.04-.39,2.68-.6,.64-.21,1.04-.35,1.2-.4,1.28-.59,2.35-.88,3.2-.88,1.76,0,3.23,1.2,4.4,3.6,.69,1.44,1.04,2.67,1.04,3.68,0,2.88-1.76,4.79-5.28,5.72-3.52,.93-7.44,1.4-11.76,1.4-5.23,0-9.53-1.09-12.92-3.28-3.39-2.19-5.87-4.96-7.44-8.32-1.57-3.36-2.36-6.8-2.36-10.32,0-4.48,1.01-8.4,3.04-11.76,2.03-3.36,4.76-5.93,8.2-7.72,3.44-1.79,7.29-2.68,11.56-2.68m-7.92,19.28h10.08c.75,0,1.44-.17,2.08-.52,.64-.35,.96-1.03,.96-2.04,0-1.23-.47-2.21-1.4-2.96-.93-.75-2.28-1.12-4.04-1.12-1.07,0-2.21,.32-3.44,.96-1.23,.64-2.24,1.48-3.04,2.52s-1.2,2.09-1.2,3.16m7.92-25.28c-5.22,0-10.04,1.13-14.33,3.36-4.42,2.3-7.98,5.64-10.57,9.95-2.59,4.29-3.9,9.29-3.9,14.86,0,4.39,.98,8.72,2.93,12.87,2.05,4.38,5.29,8.02,9.62,10.82,4.35,2.81,9.8,4.24,16.17,4.24,4.81,0,9.29-.54,13.3-1.6,8.79-2.33,9.74-8.83,9.74-11.52,0-1.94-.53-3.99-1.63-6.28-.31-.64-.65-1.23-.99-1.76,.15-.13,.29-.27,.43-.4,2.83-2.74,4.27-6.76,4.27-11.95,0-3.43-.92-6.91-2.74-10.34-1.86-3.51-4.72-6.45-8.5-8.75-3.8-2.31-8.44-3.47-13.8-3.47h0Z"/></g><g><path class="cls-13" d="M591.25,70.76c-2.94,0-5.09-.5-6.6-1.52-.35-.24-.67-.5-.97-.78-2.37,1.47-5.22,2.22-8.51,2.22-3.67,0-7.27-1.13-10.71-3.36-3.35-2.18-6.1-5.12-8.17-8.75-2.09-3.67-3.15-7.71-3.15-12.01s1.08-8.03,3.2-11.7c2.1-3.62,4.86-6.56,8.2-8.73,3.44-2.23,7.02-3.36,10.63-3.36,2.35,0,4.43,.38,6.2,1.14V12.96c0-1.93,.15-3.44,.46-4.61,.31-1.17,1.13-2.82,3.28-4.07,1.49-.86,3.55-1.28,6.3-1.28s4.82,.43,6.29,1.3c2.1,1.25,2.91,2.93,3.21,4.11,.31,1.19,.45,2.71,.45,4.63V60.8c0,1.93-.15,3.44-.46,4.61-.31,1.17-1.13,2.83-3.28,4.07-1.49,.86-3.58,1.28-6.39,1.28Zm-14.08-28c-1.28,0-2.17,.36-2.88,1.15-.79,.89-1.16,1.81-1.16,2.89,0,.61,.13,1.56,1.24,2.72,.83,.86,1.71,1.24,2.88,1.24s1.96-.36,2.7-1.18c.81-.89,1.18-1.77,1.18-2.78s-.39-1.93-1.18-2.87c-.68-.81-1.54-1.17-2.78-1.17Z"/><path d="M591.41,6c2.19,0,3.77,.29,4.76,.88,.99,.59,1.6,1.35,1.84,2.28,.24,.93,.36,2.23,.36,3.88V60.8c0,1.65-.12,2.93-.36,3.84-.24,.91-.87,1.65-1.88,2.24-1.01,.59-2.64,.88-4.88,.88s-3.93-.33-4.92-1c-.99-.67-1.59-1.64-1.8-2.92-2.24,2.56-5.36,3.84-9.36,3.84-3.09,0-6.12-.96-9.08-2.88s-5.36-4.49-7.2-7.72c-1.84-3.23-2.76-6.73-2.76-10.52,0-3.57,.93-6.97,2.8-10.2,1.87-3.23,4.28-5.8,7.24-7.72,2.96-1.92,5.96-2.88,9-2.88,2.29,0,4.2,.41,5.72,1.24,1.52,.83,2.68,1.75,3.48,2.76V12.96c0-1.65,.12-2.93,.36-3.84,.24-.91,.87-1.65,1.88-2.24,1.01-.59,2.61-.88,4.8-.88m-14.16,47.76c1.97,0,3.61-.72,4.92-2.16,1.31-1.44,1.96-3.04,1.96-4.8s-.63-3.31-1.88-4.8c-1.25-1.49-2.95-2.24-5.08-2.24s-3.84,.72-5.12,2.16c-1.28,1.44-1.92,3.07-1.92,4.88s.69,3.36,2.08,4.8c1.39,1.44,3.07,2.16,5.04,2.16M591.41,0c-3.34,0-5.82,.54-7.81,1.69-3.04,1.76-4.22,4.18-4.67,5.89-.38,1.43-.56,3.18-.56,5.38v7.03c-1.02-.15-2.09-.23-3.2-.23-4.2,0-8.33,1.29-12.27,3.85-3.75,2.43-6.83,5.71-9.17,9.75-2.39,4.13-3.61,8.58-3.61,13.2s1.19,9.36,3.55,13.49c2.31,4.05,5.39,7.34,9.15,9.78,3.93,2.55,8.09,3.85,12.35,3.85,3.33,0,6.03-.68,8.22-1.68,1.98,1.2,4.5,1.76,7.86,1.76s5.9-.54,7.89-1.69c3.04-1.76,4.22-4.18,4.67-5.9,.38-1.43,.56-3.18,.56-5.37V13.04c0-2.18-.18-3.93-.55-5.37-.45-1.74-1.6-4.17-4.58-5.94-1.99-1.18-4.47-1.73-7.83-1.73h0Zm-14.16,47.76c-.32,0-.45-.04-.72-.32-.4-.42-.4-.59-.4-.64,0-.2,0-.44,.4-.89,.05-.06,.13-.15,.64-.15,.25,0,.39,.03,.44,.05,0,0,.02,.02,.04,.05,.48,.57,.48,.84,.48,.94,0,.12,0,.32-.4,.77-.15,.17-.17,.19-.48,.19h0Z"/></g></g></g></svg>